<svg width="64" height="64" viewBox="0 0 64 64" xmlns="http://www.w3.org/2000/svg">
    <defs>
        <!-- Gradient Definitions -->
        <linearGradient id="combatGrad" x1="0%" y1="0%" x2="100%" y2="100%">
            <stop offset="0%" style="stop-color:#f44336;stop-opacity:1" />
            <stop offset="100%" style="stop-color:#ff9800;stop-opacity:1" />
        </linearGradient>
        <linearGradient id="stealthGrad" x1="0%" y1="0%" x2="100%" y2="100%">
            <stop offset="0%" style="stop-color:#9c27b0;stop-opacity:1" />
            <stop offset="100%" style="stop-color:#3f51b5;stop-opacity:1" />
        </linearGradient>
        <linearGradient id="socialGrad" x1="0%" y1="0%" x2="100%" y2="100%">
            <stop offset="0%" style="stop-color:#e91e63;stop-opacity:1" />
            <stop offset="100%" style="stop-color:#ff4081;stop-opacity:1" />
        </linearGradient>
        <linearGradient id="techGrad" x1="0%" y1="0%" x2="100%" y2="100%">
            <stop offset="0%" style="stop-color:#00bcd4;stop-opacity:1" />
            <stop offset="100%" style="stop-color:#4caf50;stop-opacity:1" />
        </linearGradient>
        <linearGradient id="vehicleGrad" x1="0%" y1="0%" x2="100%" y2="100%">
            <stop offset="0%" style="stop-color:#ff9800;stop-opacity:1" />
            <stop offset="100%" style="stop-color:#ffeb3b;stop-opacity:1" />
        </linearGradient>
        <linearGradient id="tokenGrad" x1="0%" y1="0%" x2="100%" y2="100%">
            <stop offset="0%" style="stop-color:#ffeb3b;stop-opacity:1" />
            <stop offset="100%" style="stop-color:#ffc107;stop-opacity:1" />
        </linearGradient>
        <linearGradient id="groupGrad" x1="0%" y1="0%" x2="100%" y2="100%">
            <stop offset="0%" style="stop-color:#e91e63;stop-opacity:1" />
            <stop offset="33%" style="stop-color:#00bcd4;stop-opacity:1" />
            <stop offset="66%" style="stop-color:#ff9800;stop-opacity:1" />
            <stop offset="100%" style="stop-color:#9c27b0;stop-opacity:1" />
        </linearGradient>
        
        <!-- Glow Effects -->
        <filter id="neonGlow">
            <feGaussianBlur stdDeviation="3" result="coloredBlur"/>
            <feMerge> 
                <feMergeNode in="coloredBlur"/>
                <feMergeNode in="SourceGraphic"/>
            </feMerge>
        </filter>
        
        <!-- Retro Grid Pattern -->
        <pattern id="retroGrid" x="0" y="0" width="8" height="8" patternUnits="userSpaceOnUse">
            <path d="M 8 0 L 0 0 0 8" fill="none" stroke="rgba(0, 188, 212, 0.3)" stroke-width="0.5"/>
        </pattern>
    </defs>
    
    <!-- Background -->
    <rect width="64" height="64" fill="#1a1a2e" rx="4"/>
    
    <!-- Retro Grid Overlay -->
    <rect width="64" height="64" fill="url(#retroGrid)" opacity="0.3"/>
    <!-- Scanlines -->
    <g opacity="0.1">
        <line x1="0" y1="0" x2="64" y2="0" stroke="#00bcd4" stroke-width="0.5"/><line x1="0" y1="4" x2="64" y2="4" stroke="#00bcd4" stroke-width="0.5"/><line x1="0" y1="8" x2="64" y2="8" stroke="#00bcd4" stroke-width="0.5"/><line x1="0" y1="12" x2="64" y2="12" stroke="#00bcd4" stroke-width="0.5"/><line x1="0" y1="16" x2="64" y2="16" stroke="#00bcd4" stroke-width="0.5"/><line x1="0" y1="20" x2="64" y2="20" stroke="#00bcd4" stroke-width="0.5"/><line x1="0" y1="24" x2="64" y2="24" stroke="#00bcd4" stroke-width="0.5"/><line x1="0" y1="28" x2="64" y2="28" stroke="#00bcd4" stroke-width="0.5"/><line x1="0" y1="32" x2="64" y2="32" stroke="#00bcd4" stroke-width="0.5"/><line x1="0" y1="36" x2="64" y2="36" stroke="#00bcd4" stroke-width="0.5"/><line x1="0" y1="40" x2="64" y2="40" stroke="#00bcd4" stroke-width="0.5"/><line x1="0" y1="44" x2="64" y2="44" stroke="#00bcd4" stroke-width="0.5"/><line x1="0" y1="48" x2="64" y2="48" stroke="#00bcd4" stroke-width="0.5"/><line x1="0" y1="52" x2="64" y2="52" stroke="#00bcd4" stroke-width="0.5"/><line x1="0" y1="56" x2="64" y2="56" stroke="#00bcd4" stroke-width="0.5"/><line x1="0" y1="60" x2="64" y2="60" stroke="#00bcd4" stroke-width="0.5"/>
    </g><!-- Stick figure with melee weapon, lower DC indication -->
                                       <circle cx="28" cy="16" r="3" fill="url(#combatGrad)" filter="url(#neonGlow)"/>
                                       <path d="M28 19 L28 32" stroke="url(#combatGrad)" stroke-width="2"/>
                                       <!-- Melee weapon (sword) -->
                                       <path d="M28 22 L38 18" stroke="url(#combatGrad)" stroke-width="2"/>
                                       <path d="M38 16 L44 14" stroke="#ffeb3b" stroke-width="4"/>
                                       <circle cx="44" cy="14" r="1" fill="#ffeb3b"/>
                                       <!-- Easier success indicator -->
                                       <path d="M46 18 L50 14" stroke="#00bcd4" stroke-width="2"/>
                                       <text x="52" y="16" fill="#00bcd4" font-size="4" font-weight="bold">-3</text>
                                       <!-- Target -->
                                       <circle cx="46" cy="28" r="3" fill="#f44336" opacity="0.6"/>
                                       <path d="M44 26 L48 30 M48 26 L44 30" stroke="#ffeb3b" stroke-width="1"/>
                                       <!-- Legs -->
                                       <path d="M28 32 L24 44" stroke="url(#combatGrad)" stroke-width="2"/>
                                       <path d="M28 32 L32 44" stroke="url(#combatGrad)" stroke-width="2"/></svg>